<?xml version="1.0" encoding="UTF-8"?>
<svg id="Capa_2" data-name="Capa 2" xmlns="http://www.w3.org/2000/svg" viewBox="0 0 15.11 19.83">
  <defs>
    <style>
      .cls-1 {
        fill: #6a6b6f;
      }
    </style>
  </defs>
  <g id="Capa_1-2" data-name="Capa 1">
    <path class="cls-1" d="m0,19.83c0-4.17,3.38-7.56,7.56-7.56s7.56,3.38,7.56,7.56h-1.89c0-3.13-2.54-5.67-5.67-5.67s-5.67,2.54-5.67,5.67H0Zm7.56-8.5c-3.13,0-5.67-2.54-5.67-5.67S4.43,0,7.56,0s5.67,2.54,5.67,5.67-2.54,5.67-5.67,5.67Zm0-1.89c2.09,0,3.78-1.69,3.78-3.78s-1.69-3.78-3.78-3.78-3.78,1.69-3.78,3.78,1.69,3.78,3.78,3.78Z"/>
  </g>
</svg>